<mxfile host="Electron" agent="Mozilla/5.0 (Windows NT 10.0; Win64; x64) AppleWebKit/537.36 (KHTML, like Gecko) draw.io/24.7.5 Chrome/126.0.6478.183 Electron/31.3.0 Safari/537.36" version="24.7.5">
  <diagram id="C5RBs43oDa-KdzZeNtuy" name="Page-1">
    <mxGraphModel dx="1827" dy="1022" grid="1" gridSize="10" guides="1" tooltips="1" connect="1" arrows="1" fold="1" page="1" pageScale="1" pageWidth="827" pageHeight="1169" math="0" shadow="0">
      <root>
        <mxCell id="WIyWlLk6GJQsqaUBKTNV-0" />
        <mxCell id="WIyWlLk6GJQsqaUBKTNV-1" parent="WIyWlLk6GJQsqaUBKTNV-0" />
        <mxCell id="0l1ZDfQz6t6TS9JeDwpR-14" style="edgeStyle=orthogonalEdgeStyle;rounded=0;orthogonalLoop=1;jettySize=auto;html=1;exitX=1;exitY=0.5;exitDx=0;exitDy=0;entryX=0;entryY=0.5;entryDx=0;entryDy=0;" parent="WIyWlLk6GJQsqaUBKTNV-1" source="0l1ZDfQz6t6TS9JeDwpR-1" target="0l1ZDfQz6t6TS9JeDwpR-4" edge="1">
          <mxGeometry relative="1" as="geometry" />
        </mxCell>
        <mxCell id="0l1ZDfQz6t6TS9JeDwpR-1" value="&lt;p class=&quot;MsoNormal&quot;&gt;&lt;span style=&quot;mso-spacerun:&#39;yes&#39;;font-family:宋体;mso-ascii-font-family:Calibri;&lt;br/&gt;mso-hansi-font-family:Calibri;mso-bidi-font-family:&#39;Times New Roman&#39;;font-size:10.5000pt;&lt;br/&gt;mso-font-kerning:1.0000pt;&quot;&gt;填写表格，上传图片&lt;/span&gt;&lt;/p&gt;" style="rounded=1;whiteSpace=wrap;html=1;fontSize=12;glass=0;strokeWidth=1;shadow=0;" parent="WIyWlLk6GJQsqaUBKTNV-1" vertex="1">
          <mxGeometry x="254" y="220" width="196" height="40" as="geometry" />
        </mxCell>
        <mxCell id="0l1ZDfQz6t6TS9JeDwpR-13" style="edgeStyle=orthogonalEdgeStyle;rounded=0;orthogonalLoop=1;jettySize=auto;html=1;exitX=1;exitY=0.5;exitDx=0;exitDy=0;" parent="WIyWlLk6GJQsqaUBKTNV-1" source="0l1ZDfQz6t6TS9JeDwpR-2" target="0l1ZDfQz6t6TS9JeDwpR-5" edge="1">
          <mxGeometry relative="1" as="geometry" />
        </mxCell>
        <mxCell id="0l1ZDfQz6t6TS9JeDwpR-2" value="&lt;p class=&quot;MsoNormal&quot;&gt;&lt;span style=&quot;mso-spacerun:&#39;yes&#39;;font-family:宋体;mso-ascii-font-family:Calibri;&lt;br/&gt;mso-hansi-font-family:Calibri;mso-bidi-font-family:&#39;Times New Roman&#39;;font-size:10.5000pt;&lt;br/&gt;mso-font-kerning:1.0000pt;&quot;&gt;勾选了解信息选项&lt;/span&gt;&lt;/p&gt;" style="rounded=1;whiteSpace=wrap;html=1;fontSize=12;glass=0;strokeWidth=1;shadow=0;" parent="WIyWlLk6GJQsqaUBKTNV-1" vertex="1">
          <mxGeometry x="254" y="290" width="196" height="40" as="geometry" />
        </mxCell>
        <mxCell id="0l1ZDfQz6t6TS9JeDwpR-15" style="edgeStyle=orthogonalEdgeStyle;rounded=0;orthogonalLoop=1;jettySize=auto;html=1;exitX=1;exitY=0.5;exitDx=0;exitDy=0;" parent="WIyWlLk6GJQsqaUBKTNV-1" source="0l1ZDfQz6t6TS9JeDwpR-3" target="0l1ZDfQz6t6TS9JeDwpR-6" edge="1">
          <mxGeometry relative="1" as="geometry" />
        </mxCell>
        <mxCell id="0l1ZDfQz6t6TS9JeDwpR-3" value="&lt;p class=&quot;MsoNormal&quot;&gt;&lt;span style=&quot;mso-spacerun:&#39;yes&#39;;font-family:宋体;mso-ascii-font-family:Calibri;&lt;br/&gt;mso-hansi-font-family:Calibri;mso-bidi-font-family:&#39;Times New Roman&#39;;font-size:10.5000pt;&lt;br/&gt;mso-font-kerning:1.0000pt;&quot;&gt;&lt;font face=&quot;宋体&quot;&gt;点击&lt;/font&gt;&lt;font face=&quot;宋体&quot;&gt;“发布领养信息”按钮&lt;/font&gt;&lt;/span&gt;&lt;/p&gt;" style="rounded=1;whiteSpace=wrap;html=1;fontSize=12;glass=0;strokeWidth=1;shadow=0;" parent="WIyWlLk6GJQsqaUBKTNV-1" vertex="1">
          <mxGeometry x="254" y="360" width="196" height="40" as="geometry" />
        </mxCell>
        <mxCell id="0l1ZDfQz6t6TS9JeDwpR-4" value="&lt;p class=&quot;MsoNormal&quot;&gt;&lt;span style=&quot;mso-spacerun:&#39;yes&#39;;font-family:宋体;mso-ascii-font-family:Calibri;&lt;br/&gt;mso-hansi-font-family:Calibri;mso-bidi-font-family:&#39;Times New Roman&#39;;font-size:10.5000pt;&lt;br/&gt;mso-font-kerning:1.0000pt;&quot;&gt;用户填写宠物的详细信息并上传图片&lt;/span&gt;&lt;/p&gt;" style="rounded=1;whiteSpace=wrap;html=1;fontSize=12;glass=0;strokeWidth=1;shadow=0;" parent="WIyWlLk6GJQsqaUBKTNV-1" vertex="1">
          <mxGeometry x="510" y="220" width="410" height="40" as="geometry" />
        </mxCell>
        <mxCell id="0l1ZDfQz6t6TS9JeDwpR-5" value="&lt;p class=&quot;MsoNormal&quot;&gt;&lt;span style=&quot;mso-spacerun:&#39;yes&#39;;font-family:宋体;mso-ascii-font-family:Calibri;&lt;br/&gt;mso-hansi-font-family:Calibri;mso-bidi-font-family:&#39;Times New Roman&#39;;font-size:10.5000pt;&lt;br/&gt;mso-font-kerning:1.0000pt;&quot;&gt;用户确认了解有关注意事项&lt;/span&gt;&lt;/p&gt;" style="rounded=1;whiteSpace=wrap;html=1;fontSize=12;glass=0;strokeWidth=1;shadow=0;" parent="WIyWlLk6GJQsqaUBKTNV-1" vertex="1">
          <mxGeometry x="507" y="290" width="413" height="40" as="geometry" />
        </mxCell>
        <mxCell id="0l1ZDfQz6t6TS9JeDwpR-6" value="&lt;p class=&quot;MsoNormal&quot;&gt;&lt;span style=&quot;mso-spacerun:&#39;yes&#39;;font-family:宋体;mso-ascii-font-family:Calibri;&lt;br/&gt;mso-hansi-font-family:Calibri;mso-bidi-font-family:&#39;Times New Roman&#39;;font-size:10.5000pt;&lt;br/&gt;mso-font-kerning:1.0000pt;&quot;&gt;用户填写所有必选资料并勾选了解信息选项，等待管理员审核通过后，信息将在宠物领养信息界面中展示&lt;/span&gt;&lt;/p&gt;" style="rounded=1;whiteSpace=wrap;html=1;fontSize=12;glass=0;strokeWidth=1;shadow=0;" parent="WIyWlLk6GJQsqaUBKTNV-1" vertex="1">
          <mxGeometry x="507" y="360" width="413" height="40" as="geometry" />
        </mxCell>
        <mxCell id="bMRF-yodF0ELmrQx3sRd-5" style="edgeStyle=orthogonalEdgeStyle;rounded=0;orthogonalLoop=1;jettySize=auto;html=1;exitX=1;exitY=0.5;exitDx=0;exitDy=0;entryX=0;entryY=0.5;entryDx=0;entryDy=0;" edge="1" parent="WIyWlLk6GJQsqaUBKTNV-1" source="bMRF-yodF0ELmrQx3sRd-0" target="bMRF-yodF0ELmrQx3sRd-1">
          <mxGeometry relative="1" as="geometry" />
        </mxCell>
        <mxCell id="bMRF-yodF0ELmrQx3sRd-6" style="edgeStyle=orthogonalEdgeStyle;rounded=0;orthogonalLoop=1;jettySize=auto;html=1;exitX=1;exitY=0.5;exitDx=0;exitDy=0;entryX=0;entryY=0.5;entryDx=0;entryDy=0;" edge="1" parent="WIyWlLk6GJQsqaUBKTNV-1" source="bMRF-yodF0ELmrQx3sRd-0" target="0l1ZDfQz6t6TS9JeDwpR-1">
          <mxGeometry relative="1" as="geometry" />
        </mxCell>
        <mxCell id="bMRF-yodF0ELmrQx3sRd-9" style="edgeStyle=orthogonalEdgeStyle;rounded=0;orthogonalLoop=1;jettySize=auto;html=1;exitX=1;exitY=0.5;exitDx=0;exitDy=0;entryX=0;entryY=0.5;entryDx=0;entryDy=0;" edge="1" parent="WIyWlLk6GJQsqaUBKTNV-1" source="bMRF-yodF0ELmrQx3sRd-0" target="0l1ZDfQz6t6TS9JeDwpR-2">
          <mxGeometry relative="1" as="geometry" />
        </mxCell>
        <mxCell id="bMRF-yodF0ELmrQx3sRd-10" style="edgeStyle=orthogonalEdgeStyle;rounded=0;orthogonalLoop=1;jettySize=auto;html=1;exitX=1;exitY=0.5;exitDx=0;exitDy=0;" edge="1" parent="WIyWlLk6GJQsqaUBKTNV-1" source="bMRF-yodF0ELmrQx3sRd-0" target="0l1ZDfQz6t6TS9JeDwpR-3">
          <mxGeometry relative="1" as="geometry" />
        </mxCell>
        <mxCell id="bMRF-yodF0ELmrQx3sRd-0" value="&lt;p class=&quot;MsoNormal&quot;&gt;&lt;font face=&quot;宋体&quot;&gt;&lt;span style=&quot;font-size: 14px;&quot;&gt;进入领养信息发布界面&lt;/span&gt;&lt;/font&gt;&lt;/p&gt;" style="rounded=1;whiteSpace=wrap;html=1;fontSize=12;glass=0;strokeWidth=1;shadow=0;" vertex="1" parent="WIyWlLk6GJQsqaUBKTNV-1">
          <mxGeometry x="-30" y="320" width="166" height="40" as="geometry" />
        </mxCell>
        <mxCell id="bMRF-yodF0ELmrQx3sRd-4" style="edgeStyle=orthogonalEdgeStyle;rounded=0;orthogonalLoop=1;jettySize=auto;html=1;exitX=1;exitY=0.5;exitDx=0;exitDy=0;" edge="1" parent="WIyWlLk6GJQsqaUBKTNV-1" source="bMRF-yodF0ELmrQx3sRd-1" target="bMRF-yodF0ELmrQx3sRd-3">
          <mxGeometry relative="1" as="geometry" />
        </mxCell>
        <mxCell id="bMRF-yodF0ELmrQx3sRd-1" value="&lt;p class=&quot;MsoNormal&quot;&gt;&lt;span style=&quot;mso-spacerun:&#39;yes&#39;;font-family:宋体;mso-ascii-font-family:Calibri;&lt;br/&gt;mso-hansi-font-family:Calibri;mso-bidi-font-family:&#39;Times New Roman&#39;;font-size:10.5000pt;&lt;br/&gt;mso-font-kerning:1.0000pt;&quot;&gt;如果信息不完整或有误，系统提示用户修改&lt;/span&gt;&lt;/p&gt;" style="rounded=1;whiteSpace=wrap;html=1;fontSize=12;glass=0;strokeWidth=1;shadow=0;" vertex="1" parent="WIyWlLk6GJQsqaUBKTNV-1">
          <mxGeometry x="254" y="430" width="196" height="40" as="geometry" />
        </mxCell>
        <mxCell id="bMRF-yodF0ELmrQx3sRd-3" value="&lt;p class=&quot;MsoNormal&quot;&gt;&lt;span style=&quot;mso-spacerun:&#39;yes&#39;;font-family:宋体;mso-ascii-font-family:Calibri;&lt;br/&gt;mso-hansi-font-family:Calibri;mso-bidi-font-family:&#39;Times New Roman&#39;;font-size:10.5000pt;&lt;br/&gt;mso-font-kerning:1.0000pt;&quot;&gt;用户根据提示修改信息后可以再次提交&lt;/span&gt;&lt;/p&gt;" style="rounded=1;whiteSpace=wrap;html=1;fontSize=12;glass=0;strokeWidth=1;shadow=0;" vertex="1" parent="WIyWlLk6GJQsqaUBKTNV-1">
          <mxGeometry x="507" y="430" width="413" height="40" as="geometry" />
        </mxCell>
      </root>
    </mxGraphModel>
  </diagram>
</mxfile>
